<svg version="1.2" xmlns="http://www.w3.org/2000/svg" viewBox="0 0 72 72" width="72" height="72"><style>.a{fill:#fff}.b{fill:#ea5a47;stroke:#ea5a47;stroke-linecap:round;stroke-linejoin:round;stroke-width:2}.c{fill:#ea5a47}.d{fill:#a57939}.e{fill:#92d3f5}.f{fill:none;stroke:#000;stroke-linecap:round;stroke-linejoin:round;stroke-width:2}.g{fill:none;stroke:#000;stroke-miterlimit:10;stroke-width:2}</style><path class="a" d="m20.1 31.1h26.9v18.1h-26.9z"/><path class="b" d="m33.2 19.2l-12.1 12.8h25.4z"/><path class="c" d="m47.3 26l-6.4 6.1v-8.6c0-0.9 0.8-1.4 1.7-1.4h3c0.9 0 1.7 0.5 1.7 1.4z"/><path class="d" d="m27 36h6v12h-6z"/><path class="e" d="m36 36h6v5h-6z"/><path class="f" d="m29 22l4.2-4 13.8 12.1v18.9h-26v-12.5"/><path class="f" d="m27 36h6v12h-6z"/><path class="f" d="m36 36h6v5h-6z"/><path class="f" d="m43.5 23h3v3"/><path class="g" d=""/><path class="f" d="m43.5 32h-21"/></svg>